<svg width="30" height="30" viewBox="0 0 30 30" fill="none" xmlns="http://www.w3.org/2000/svg">
<path d="M29.4 2.8V1.4C29.4 1.0136 29.0871 0.7 28.7 0.7H25.9C25.6228 0.7 25.4002 0.7182 25.2 0.77V0.7C25.2 0.3136 24.8871 0 24.5 0H20.3C19.0862 0 18.6473 0.6888 18.3897 1.4H17.8213C17.6582 1.1823 17.5 0.9002 17.5 0.7C17.5 0.3136 17.1871 0 16.8 0H11.9C11.5423 0 11.242 0.2751 11.2035 0.63C11.1874 0.777 10.8899 1.4 10.4272 1.4H8.5092C8.4637 1.3461 8.3979 1.246 8.3412 1.1179C8.2292 0.8638 7.9772 0.7 7.7 0.7H0.7C0.3129 0.7 0 1.0136 0 1.4V7C0 8.9761 0.5775 11.4779 0.6993 11.9826L0.6937 13.0431L0.2191 13.4918C0.0791001 13.6234 0 13.8075 0 14V16.8C0 16.9862 0.0735001 17.164 0.2051 17.2949L0.7 17.7898V20.8866L0.0364 22.8788C-0.00629997 23.0055 -0.0111999 23.1406 0.0217001 23.2701L0.672 25.8727L0.0371 27.7795C-0.035 27.993 0.00140004 28.2282 0.133 28.4102C0.2639 28.5922 0.4753 28.7 0.7 28.7H10.5C10.6862 28.7 10.864 28.6265 10.9949 28.4949L11.0579 28.4319C11.4296 28.9401 11.9469 29.4 12.6 29.4H14.7C15.2152 29.4 15.666 29.1753 16.0629 28.9765C16.3345 28.84 16.6152 28.7 16.8 28.7H20.3C20.4862 28.7 20.664 28.6265 20.7949 28.4949L20.965 28.3248C21.0091 28.3808 21.0511 28.4361 21.0924 28.4893C21.4361 28.9373 21.791 29.4 22.4 29.4H25.9C26.2871 29.4 26.6 29.0871 26.6 28.7V28.1967L28.5306 28.6783C28.7399 28.7322 28.9618 28.6832 29.1326 28.5495C29.3027 28.4165 29.4014 28.2114 29.4 27.9944C29.3993 27.9258 29.3559 21.0574 29.4 17.5084C29.4021 17.3194 29.3279 17.1381 29.1949 17.0044L28.7 16.5102V13.3C28.7 13.1145 28.6265 12.936 28.4949 12.8051L28.1519 12.4621L28.5754 11.6151L29.1949 10.9956C29.3265 10.864 29.4 10.6855 29.4 10.5L29.3895 6.993C29.3895 6.9363 29.3825 6.8803 29.3692 6.825L28.742 4.2826L29.3265 3.1136C29.3748 3.0163 29.4 2.9085 29.4 2.8ZM21.0623 5.6L23.1931 7L22.4826 11.2L16.8 7L21.0623 5.6ZM7.7 23.8L4.9 21.7L6.3 16.8L11.9 22.4L7.7 23.8ZM22.54 23.1H19.2731L4.9 6.2482L7.5131 5.6L24.5 18.5626L22.54 23.1Z" fill="white"/>
</svg>
